<svg width="19" height="21" viewBox="0 0 19 21" fill="none" xmlns="http://www.w3.org/2000/svg">
<path d="M8.96163 10.0957C9.62048 10.0957 10.2344 9.96842 10.8034 9.71387C11.3724 9.45931 11.8741 9.11491 12.3083 8.68066C12.7426 8.24642 13.087 7.74479 13.3415 7.17578C13.5961 6.60677 13.7233 5.99284 13.7233 5.33398C13.7233 4.6901 13.5961 4.08366 13.3415 3.51465C13.087 2.93066 12.7426 2.42529 12.3083 1.99854C11.8741 1.57178 11.3724 1.23112 10.8034 0.976562C10.2344 0.722006 9.62048 0.594727 8.96163 0.594727C8.31775 0.594727 7.7113 0.722006 7.14229 0.976562C6.55831 1.23112 6.05293 1.57178 5.62618 1.99854C5.19942 2.42529 4.85876 2.93066 4.6042 3.51465C4.34965 4.08366 4.22237 4.6901 4.22237 5.33398C4.22237 5.99284 4.34965 6.60677 4.6042 7.17578C4.85876 7.74479 5.19942 8.24642 5.62618 8.68066C6.05293 9.11491 6.55831 9.45931 7.14229 9.71387C7.7113 9.96842 8.31775 10.0957 8.96163 10.0957ZM8.96163 2.18945C9.83012 2.18945 10.6013 2.50391 11.2751 3.13281C11.9489 3.76172 12.2858 4.54785 12.2858 5.49121C12.2858 6.4196 11.9489 7.17952 11.2751 7.771C10.6013 8.36247 9.83012 8.6582 8.96163 8.6582C8.10811 8.6582 7.34444 8.34001 6.67061 7.70361C5.99678 7.06722 5.65987 6.27734 5.65987 5.33398C5.65987 4.4056 5.99678 3.64941 6.67061 3.06543C7.34444 2.48145 8.10811 2.18945 8.96163 2.18945ZM14.1052 11.4209C13.4613 11.4209 12.8549 11.5482 12.2858 11.8027C11.7168 12.0423 11.219 12.3755 10.7922 12.8022C10.3654 13.229 10.0323 13.7269 9.79268 14.2959C9.53812 14.8649 9.41085 15.4788 9.41085 16.1377C9.41085 16.7816 9.53812 17.388 9.79268 17.957C10.0323 18.526 10.3654 19.0239 10.7922 19.4507C11.219 19.8774 11.7168 20.2106 12.2858 20.4502C12.8549 20.7048 13.4613 20.832 14.1052 20.832C14.764 20.832 15.378 20.7048 15.947 20.4502C16.516 20.2106 17.0139 19.8774 17.4406 19.4507C17.8674 19.0239 18.2006 18.526 18.4401 17.957C18.6947 17.388 18.822 16.7816 18.822 16.1377C18.822 15.4788 18.6947 14.8649 18.4401 14.2959C18.2006 13.7269 17.8674 13.229 17.4406 12.8022C17.0139 12.3755 16.516 12.0423 15.947 11.8027C15.378 11.5482 14.764 11.4209 14.1052 11.4209ZM14.1052 19.4844C13.1768 19.4844 12.3869 19.1587 11.7356 18.5073C11.0842 17.856 10.7585 17.0661 10.7585 16.1377C10.7585 15.2093 11.0842 14.4157 11.7356 13.7568C12.3869 13.098 13.1768 12.7686 14.1052 12.7686C15.0336 12.7686 15.8272 13.098 16.486 13.7568C17.1449 14.4157 17.4743 15.2093 17.4743 16.1377C17.4743 17.0661 17.1449 17.856 16.486 18.5073C15.8272 19.1587 15.0336 19.4844 14.1052 19.4844ZM16.1042 15.127L15.5876 14.6104C15.5277 14.5505 15.4528 14.5205 15.363 14.5205C15.2731 14.5205 15.1983 14.5505 15.1384 14.6104L13.8132 15.9355L13.0944 15.2393C13.0345 15.1644 12.9597 15.127 12.8698 15.127C12.78 15.127 12.7051 15.1644 12.6452 15.2393L12.1286 15.7334C12.0687 15.7933 12.0388 15.8682 12.0388 15.958C12.0388 16.0479 12.0687 16.1302 12.1286 16.2051L13.5886 17.6426C13.6485 17.7025 13.7233 17.7324 13.8132 17.7324C13.903 17.7324 13.9779 17.7025 14.0378 17.6426L16.1042 15.5762C16.1641 15.5163 16.194 15.4414 16.194 15.3516C16.194 15.2617 16.1641 15.1868 16.1042 15.127ZM9.50069 12.4766C9.50069 12.2669 9.44828 12.0872 9.34346 11.9375C9.23864 11.7878 9.08142 11.7054 8.87178 11.6904C8.87178 11.6904 8.83809 11.6904 8.77071 11.6904C8.70333 11.6904 8.66215 11.6904 8.64717 11.6904C7.61397 11.7204 6.64815 11.8701 5.74971 12.1396C4.8363 12.3942 4.02022 12.7536 3.30147 13.2178C2.58272 13.682 1.97627 14.236 1.48213 14.8799C0.973019 15.5088 0.591183 16.2126 0.336626 16.9912C0.0521203 18.1442 0.0970422 18.8031 0.471391 18.9678C0.84574 19.1325 1.13773 19.14 1.34737 18.9902C1.57198 18.8555 1.70674 18.5897 1.75166 18.1929C1.79659 17.7961 1.85648 17.4928 1.93135 17.2832C2.14099 16.7142 2.46293 16.1751 2.89717 15.666C3.31644 15.1719 3.82556 14.7414 4.42452 14.3745C5.02347 14.0076 5.68233 13.7194 6.40108 13.5098C7.1348 13.3151 7.91345 13.2327 8.73702 13.2627C8.73702 13.2627 8.75948 13.259 8.8044 13.2515C8.84932 13.244 8.87178 13.2402 8.87178 13.2402C9.09639 13.1654 9.25736 13.0718 9.35469 12.9595C9.45202 12.8472 9.50069 12.6862 9.50069 12.4766Z" fill="#262626"/>
</svg>
