<svg width="15" height="15" viewBox="0 0 15 15" fill="none" xmlns="http://www.w3.org/2000/svg">
<path d="M4.74609 8.24219H1.50391C1.0612 8.24219 0.69987 8.38216 0.419922 8.66211C0.139974 8.94206 0 9.30339 0 9.74609V12.9883C0 13.431 0.139974 13.7923 0.419922 14.0723C0.69987 14.3522 1.0612 14.4922 1.50391 14.4922H4.74609C5.1888 14.4922 5.55013 14.3522 5.83008 14.0723C6.11003 13.7923 6.25 13.431 6.25 12.9883V9.74609C6.25 9.30339 6.11003 8.94206 5.83008 8.66211C5.55013 8.38216 5.1888 8.24219 4.74609 8.24219ZM5 12.9883C5 13.0534 4.97396 13.112 4.92188 13.1641C4.86979 13.2161 4.8112 13.2422 4.74609 13.2422H1.50391C1.4388 13.2422 1.38021 13.2161 1.32812 13.1641C1.27604 13.112 1.25 13.0534 1.25 12.9883V9.74609C1.25 9.68099 1.27604 9.6224 1.32812 9.57031C1.38021 9.51823 1.4388 9.49219 1.50391 9.49219H4.74609C4.8112 9.49219 4.86979 9.51823 4.92188 9.57031C4.97396 9.6224 5 9.68099 5 9.74609V12.9883ZM4.74609 0H1.50391C1.0612 0 0.69987 0.139974 0.419922 0.419922C0.139974 0.69987 0 1.0612 0 1.50391V4.74609C0 5.1888 0.139974 5.55013 0.419922 5.83008C0.69987 6.11003 1.0612 6.25 1.50391 6.25H4.74609C5.1888 6.25 5.55013 6.11003 5.83008 5.83008C6.11003 5.55013 6.25 5.1888 6.25 4.74609V1.50391C6.25 1.0612 6.11003 0.69987 5.83008 0.419922C5.55013 0.139974 5.1888 0 4.74609 0ZM5 4.74609C5 4.8112 4.97396 4.86979 4.92188 4.92188C4.86979 4.97396 4.8112 5 4.74609 5H1.50391C1.4388 5 1.38021 4.97396 1.32812 4.92188C1.27604 4.86979 1.25 4.8112 1.25 4.74609V1.50391C1.25 1.4388 1.27604 1.38021 1.32812 1.32812C1.38021 1.27604 1.4388 1.25 1.50391 1.25H4.74609C4.8112 1.25 4.86979 1.27604 4.92188 1.32812C4.97396 1.38021 5 1.4388 5 1.50391V4.74609ZM12.9883 0H9.74609C9.30339 0 8.94206 0.139974 8.66211 0.419922C8.38216 0.69987 8.24219 1.0612 8.24219 1.50391V4.74609C8.24219 5.1888 8.38216 5.55013 8.66211 5.83008C8.94206 6.11003 9.30339 6.25 9.74609 6.25H12.9883C13.431 6.25 13.7923 6.11003 14.0723 5.83008C14.3522 5.55013 14.4922 5.1888 14.4922 4.74609V1.50391C14.4922 1.0612 14.3522 0.69987 14.0723 0.419922C13.7923 0.139974 13.431 0 12.9883 0ZM13.2422 4.74609C13.2422 4.8112 13.2161 4.86979 13.1641 4.92188C13.112 4.97396 13.0534 5 12.9883 5H9.74609C9.68099 5 9.6224 4.97396 9.57031 4.92188C9.51823 4.86979 9.49219 4.8112 9.49219 4.74609V1.50391C9.49219 1.4388 9.51823 1.38021 9.57031 1.32812C9.6224 1.27604 9.68099 1.25 9.74609 1.25H12.9883C13.0534 1.25 13.112 1.27604 13.1641 1.32812C13.2161 1.38021 13.2422 1.4388 13.2422 1.50391V4.74609ZM12.9883 8.24219H9.74609C9.30339 8.24219 8.94206 8.38216 8.66211 8.66211C8.38216 8.94206 8.24219 9.30339 8.24219 9.74609V12.9883C8.24219 13.431 8.38216 13.7923 8.66211 14.0723C8.94206 14.3522 9.30339 14.4922 9.74609 14.4922H12.9883C13.431 14.4922 13.7923 14.3522 14.0723 14.0723C14.3522 13.7923 14.4922 13.431 14.4922 12.9883V9.74609C14.4922 9.30339 14.3522 8.94206 14.0723 8.66211C13.7923 8.38216 13.431 8.24219 12.9883 8.24219ZM13.2422 12.9883C13.2422 13.0534 13.2161 13.112 13.1641 13.1641C13.112 13.2161 13.0534 13.2422 12.9883 13.2422H9.74609C9.68099 13.2422 9.6224 13.2161 9.57031 13.1641C9.51823 13.112 9.49219 13.0534 9.49219 12.9883V9.74609C9.49219 9.68099 9.51823 9.6224 9.57031 9.57031C9.6224 9.51823 9.68099 9.49219 9.74609 9.49219H12.9883C13.0534 9.49219 13.112 9.51823 13.1641 9.57031C13.2161 9.6224 13.2422 9.68099 13.2422 9.74609V12.9883Z" fill="#262626"/>
</svg>
